<svg width="375" height="535" viewBox="0 0 375 535" fill="none" xmlns="http://www.w3.org/2000/svg">
<path d="M350 535H125C69.7715 535 25 490.228 25 435V0H350V535Z" fill="url(#paint0_linear_430_3412)"/>
<path d="M171.237 480.436H164.487V493H171.237V491.65H166.125V487.33H170.697V485.98H166.125V481.786H171.237V480.436ZM173.103 488.032C173.103 491.092 175.137 493.162 177.765 493.162C179.583 493.162 180.861 492.226 181.455 491.164V493H183.111V483.136H181.455V484.936C180.879 483.91 179.619 482.974 177.783 482.974C175.137 482.974 173.103 484.954 173.103 488.032ZM181.455 488.05C181.455 490.372 179.907 491.722 178.107 491.722C176.307 491.722 174.777 490.354 174.777 488.032C174.777 485.71 176.307 484.396 178.107 484.396C179.907 484.396 181.455 485.764 181.455 488.05ZM192.971 490.318C192.899 486.79 187.175 488.068 187.175 485.728C187.175 484.936 187.895 484.36 189.101 484.36C190.415 484.36 191.171 485.08 191.243 486.07H192.881C192.773 484.144 191.333 482.974 189.155 482.974C186.959 482.974 185.537 484.216 185.537 485.728C185.537 489.4 191.369 488.122 191.369 490.318C191.369 491.128 190.649 491.776 189.353 491.776C187.967 491.776 187.121 491.056 187.031 490.102H185.339C185.447 491.902 187.067 493.162 189.371 493.162C191.549 493.162 192.971 491.938 192.971 490.318ZM195.283 493H196.921V483.136H195.283V493ZM196.129 481.534C196.723 481.534 197.209 481.048 197.209 480.418C197.209 479.788 196.723 479.302 196.129 479.302C195.499 479.302 195.013 479.788 195.013 480.418C195.013 481.048 195.499 481.534 196.129 481.534ZM199.713 493H201.351V479.68H199.713V493ZM207.887 491.128L204.791 483.136H202.973L206.951 492.892L205.007 497.644H206.699L212.639 483.136H210.947L207.887 491.128Z" fill="#12121F"/>
<path d="M86.3584 444.552C86.3584 449.592 89.8624 453.12 94.8304 453.12C98.8384 453.12 101.862 450.888 102.822 447.24H98.3104C97.6144 448.68 96.3424 449.4 94.7824 449.4C92.2624 449.4 90.5344 447.528 90.5344 444.552C90.5344 441.576 92.2624 439.704 94.7824 439.704C96.3424 439.704 97.6144 440.424 98.3104 441.864H102.822C101.862 438.216 98.8384 435.96 94.8304 435.96C89.8624 435.96 86.3584 439.512 86.3584 444.552ZM105.336 453H109.44V445.728C109.44 443.904 110.448 442.896 112.008 442.896C113.568 442.896 114.576 443.904 114.576 445.728V453H118.656V445.176C118.656 441.576 116.616 439.464 113.568 439.464C111.72 439.464 110.256 440.256 109.44 441.408V435.24H105.336V453ZM134.612 446.304C134.612 442.056 131.588 439.416 127.652 439.416C123.74 439.416 120.692 442.056 120.692 446.304C120.692 450.552 123.668 453.192 127.604 453.192C131.54 453.192 134.612 450.552 134.612 446.304ZM124.868 446.304C124.868 444.024 126.164 442.968 127.652 442.968C129.092 442.968 130.436 444.024 130.436 446.304C130.436 448.56 129.068 449.64 127.604 449.64C126.116 449.64 124.868 448.56 124.868 446.304ZM147.661 449.112C147.589 444.12 140.341 445.632 140.341 443.496C140.341 442.848 140.869 442.464 141.829 442.464C142.981 442.464 143.677 443.064 143.797 443.976H147.589C147.325 441.336 145.405 439.416 141.949 439.416C138.445 439.416 136.501 441.288 136.501 443.568C136.501 448.488 143.797 446.928 143.797 449.088C143.797 449.688 143.245 450.168 142.189 450.168C141.061 450.168 140.221 449.544 140.125 448.608H136.069C136.261 451.2 138.661 453.192 142.237 453.192C145.597 453.192 147.661 451.44 147.661 449.112ZM156.076 442.704C157.444 442.704 158.596 443.544 158.596 445.008H153.46C153.7 443.52 154.732 442.704 156.076 442.704ZM162.484 448.56H158.116C157.78 449.28 157.132 449.856 155.98 449.856C154.66 449.856 153.58 449.04 153.436 447.288H162.724C162.772 446.88 162.796 446.472 162.796 446.088C162.796 442.008 160.036 439.416 156.124 439.416C152.14 439.416 149.356 442.056 149.356 446.304C149.356 450.552 152.188 453.192 156.124 453.192C159.46 453.192 161.836 451.176 162.484 448.56ZM169.135 439.44H173.599V453H177.703V439.44H182.167V436.152H169.135V439.44ZM184.226 453H188.33V445.728C188.33 443.904 189.338 442.896 190.898 442.896C192.458 442.896 193.466 443.904 193.466 445.728V453H197.546V445.176C197.546 441.576 195.506 439.464 192.458 439.464C190.61 439.464 189.146 440.256 188.33 441.408V435.24H184.226V453ZM206.302 442.704C207.67 442.704 208.822 443.544 208.822 445.008H203.686C203.926 443.52 204.958 442.704 206.302 442.704ZM212.71 448.56H208.342C208.006 449.28 207.358 449.856 206.206 449.856C204.886 449.856 203.806 449.04 203.662 447.288H212.95C212.998 446.88 213.022 446.472 213.022 446.088C213.022 442.008 210.262 439.416 206.35 439.416C202.366 439.416 199.582 442.056 199.582 446.304C199.582 450.552 202.414 453.192 206.35 453.192C209.686 453.192 212.062 451.176 212.71 448.56ZM229.177 441.624C229.177 442.944 228.457 443.736 226.921 443.736H224.377V439.56H226.921C228.457 439.56 229.177 440.376 229.177 441.624ZM220.273 436.152V453H224.377V446.64H225.361L228.865 453H233.497L229.609 446.328C232.201 445.56 233.353 443.568 233.353 441.456C233.353 438.528 231.289 436.152 227.161 436.152H220.273ZM249.033 446.304C249.033 442.056 246.009 439.416 242.073 439.416C238.161 439.416 235.113 442.056 235.113 446.304C235.113 450.552 238.089 453.192 242.025 453.192C245.961 453.192 249.033 450.552 249.033 446.304ZM239.289 446.304C239.289 444.024 240.585 442.968 242.073 442.968C243.513 442.968 244.857 444.024 244.857 446.304C244.857 448.56 243.489 449.64 242.025 449.64C240.537 449.64 239.289 448.56 239.289 446.304ZM264.435 439.608H260.331V446.88C260.331 448.704 259.323 449.712 257.739 449.712C256.203 449.712 255.171 448.704 255.171 446.88V439.608H251.091V447.432C251.091 451.008 253.179 453.144 256.275 453.144C258.075 453.144 259.515 452.328 260.331 451.176V453H264.435V439.608ZM268.031 448.344C268.031 451.824 269.975 453 272.759 453H274.847V449.52H273.383C272.471 449.52 272.135 449.184 272.135 448.392V443.016H274.823V439.608H272.135V436.344H268.031V439.608H266.399V443.016H268.031V448.344ZM283.037 442.704C284.405 442.704 285.557 443.544 285.557 445.008H280.421C280.661 443.52 281.693 442.704 283.037 442.704ZM289.445 448.56H285.077C284.741 449.28 284.093 449.856 282.941 449.856C281.621 449.856 280.541 449.04 280.397 447.288H289.685C289.733 446.88 289.757 446.472 289.757 446.088C289.757 442.008 286.997 439.416 283.085 439.416C279.101 439.416 276.317 442.056 276.317 446.304C276.317 450.552 279.149 453.192 283.085 453.192C286.421 453.192 288.797 451.176 289.445 448.56Z" fill="#12121F"/>
<path d="M272.827 162.02H107.367V289.644H272.827V162.02Z" fill="#E6E6E6"/>
<path d="M260.485 171.539H119.71V280.125H260.485V171.539Z" fill="#C9C9C9"/>
<path opacity="0.1" d="M161.41 235.91L171.527 241.103L165.023 253.841L171.527 256.577L154.906 289.644H124.547L127.688 261.077L132.438 252.983L144.308 235.91H156.593H161.41Z" fill="black"/>
<path d="M121.088 261.394L137.968 240.361L141.62 243.55L127.225 267.609L121.088 261.394Z" fill="#FFE7AC"/>
<path opacity="0.45" d="M176.113 380C243.554 380 298.225 373.051 298.225 364.478C298.225 355.906 243.554 348.956 176.113 348.956C108.672 348.956 54 355.906 54 364.478C54 373.051 108.672 380 176.113 380Z" fill="#E6E6E6"/>
<path opacity="0.58" d="M257.701 346.952C257.701 346.952 248.066 344.36 245.946 335.39C245.946 335.39 260.823 332.317 261.314 347.684L257.701 346.952Z" fill="#FFBE21"/>
<path opacity="0.73" d="M258.838 345.989C258.838 345.989 252.094 335.39 257.952 325.447C257.952 325.447 269.311 332.596 264.33 345.989H258.838Z" fill="#FFBE21"/>
<path d="M260.601 345.989C260.601 345.989 264.108 334.764 274.822 332.596C274.822 332.596 276.864 339.861 267.933 345.989H260.601Z" fill="#FFBE21"/>
<path d="M253.625 345.767L255.629 359.092H267.904L269.657 345.767H253.625Z" fill="#24285B"/>
<path d="M93.1276 226.738L96.2493 236.084L88.8497 240.785L86.1904 224.589L93.1276 226.738Z" fill="#F4A28C"/>
<path d="M83.6466 215.552C84.0253 214.654 84.6249 213.866 85.3897 213.261C86.1546 212.657 87.0598 212.256 88.0212 212.096C88.9826 211.935 89.969 212.02 90.8887 212.343C91.8084 212.666 92.6315 213.216 93.2815 213.943C96.4225 217.296 100.219 222.614 95.9311 225.505C89.3601 229.956 83.3286 221.651 83.3286 221.651C82.8339 219.63 82.9445 217.509 83.6466 215.552Z" fill="#F4A28C"/>
<path d="M88.4543 221.332C88.4543 221.332 86.7682 219.926 86.007 221.93C85.2459 223.934 88.2231 224.897 89.1095 223.857C89.9959 222.816 88.4543 221.332 88.4543 221.332Z" fill="#F4A28C"/>
<path d="M80.2167 245.42C81.3331 242.942 82.9704 240.735 85.0172 238.947C87.064 237.16 89.472 235.835 92.0773 235.062C102.126 232.046 120.625 235.351 126.272 244.755C133.979 257.617 122.687 298.498 122.687 298.498L88.9652 301.119C88.9652 301.119 70.3409 267.58 80.2167 245.42Z" fill="#FFBE21"/>
<path d="M122.687 298.45L118.246 356.51H111.222L104.95 311.409L89.4277 301.071L122.687 298.45Z" fill="#24285B"/>
<path d="M89.4271 301.071L79.7344 356.51H87.2592L103.523 310.455L89.4271 301.071Z" fill="#24285B"/>
<path opacity="0.08" d="M95.0449 234.137C95.0449 234.137 79.2436 285.009 124.913 288.391L122.687 298.412L88.9652 301.032C88.9652 301.032 77.0661 282.35 77.5671 256.105C77.5671 256.105 77.8562 243.127 86.9901 237.394C89.4114 235.745 92.158 234.635 95.0449 234.137Z" fill="black"/>
<path d="M81.4975 356.395L76.9594 359.738C76.7597 359.845 76.6042 360.02 76.5204 360.23C76.4366 360.441 76.4297 360.674 76.5011 360.89C76.5725 361.105 76.7174 361.288 76.9105 361.407C77.1036 361.526 77.3325 361.573 77.5568 361.54H85.1587C85.4142 361.54 85.6593 361.438 85.84 361.257C86.0207 361.077 86.1222 360.832 86.1222 360.576V356.433L81.4975 356.395Z" fill="#FFBE21"/>
<path d="M117.369 356.395L121.637 359.738C121.843 359.844 122.003 360.021 122.089 360.237C122.175 360.452 122.181 360.691 122.105 360.91C122.028 361.129 121.876 361.313 121.675 361.429C121.474 361.545 121.238 361.584 121.01 361.54H115.605C114.839 361.54 114.104 361.235 113.561 360.693C113.019 360.151 112.715 359.416 112.715 358.649V356.395H117.369Z" fill="#FFBE21"/>
<path d="M108.764 234.754C107.081 237.455 106.188 240.575 106.188 243.758C106.188 246.941 107.081 250.06 108.764 252.762C112.445 258.976 123.159 271.068 130.491 279.084C131.315 279.995 132.345 280.695 133.494 281.127C134.644 281.559 135.88 281.71 137.099 281.568C138.319 281.426 139.487 280.994 140.506 280.309C141.526 279.624 142.366 278.705 142.958 277.629L158.692 249.881L153.355 246.46L138.902 267.609C138.902 267.609 129.065 235.159 108.764 234.754Z" fill="#FFBE21"/>
<path opacity="0.46" d="M108.764 234.754C107.081 237.455 106.188 240.575 106.188 243.758C106.188 246.941 107.081 250.06 108.764 252.762C112.445 258.976 123.159 271.068 130.491 279.084C131.315 279.995 132.345 280.695 133.494 281.127C134.644 281.559 135.88 281.71 137.099 281.568C138.319 281.426 139.487 280.994 140.506 280.309C141.526 279.624 142.366 278.705 142.958 277.629L158.692 249.881L153.355 246.46L138.902 267.609C138.902 267.609 129.065 235.159 108.764 234.754Z" fill="white"/>
<path d="M229.018 227.557V280.125" stroke="#E6E6E6" stroke-width="7.105" stroke-miterlimit="10"/>
<path d="M156.833 248.696C156.833 248.696 165.764 245.41 162.122 240.352C158.48 235.293 153.354 246.46 153.354 246.46L156.833 248.696Z" fill="#F4A28C"/>
<path d="M164.949 234.014L156.895 230.406L151.632 242.153L159.687 245.761L164.949 234.014Z" fill="#FFD200"/>
<path d="M76.3719 245.892C81.5073 243.416 89.8607 240.323 97.9155 241.286C99.5551 241.477 101.11 242.119 102.407 243.139C103.705 244.159 104.695 245.519 105.267 247.067C107.425 252.935 110.778 263.659 110.595 273.082C110.568 274.901 109.994 276.67 108.948 278.158C107.901 279.646 106.43 280.785 104.727 281.425C98.2338 283.756 91.4764 285.274 84.6097 285.944C82.5019 286.167 80.3827 285.643 78.6219 284.463C76.861 283.284 75.5702 281.523 74.9748 279.489C72.6437 271.252 71.3967 262.747 71.2654 254.187C71.2318 252.461 71.6953 250.761 72.6006 249.29C73.506 247.819 74.8151 246.64 76.3719 245.892Z" fill="#24285B"/>
<path d="M78.2488 248.705C82.5859 246.715 89.6409 244.23 96.4437 245.004C97.8284 245.158 99.1414 245.673 100.237 246.493C101.333 247.313 102.169 248.406 102.652 249.65C104.475 254.365 107.307 262.982 107.152 270.554C107.13 272.016 106.645 273.438 105.761 274.634C104.877 275.83 103.635 276.745 102.197 277.259C96.7125 279.133 91.0055 280.352 85.2061 280.891C83.426 281.07 81.6362 280.649 80.149 279.701C78.6618 278.753 77.5717 277.338 77.0689 275.703C75.1001 269.084 74.047 262.249 73.936 255.371C73.9076 253.984 74.2991 252.618 75.0637 251.436C75.8284 250.254 76.9339 249.306 78.2488 248.705Z" fill="#333A48" fill-opacity="0.38"/>
<path opacity="0.1" d="M218.699 162.02H263.299V163.041L240.994 201.032H229.702L218.699 162.02Z" fill="black"/>
<path d="M86.7491 257.2C88.0597 257.2 89.1222 256.137 89.1222 254.826C89.1222 253.516 88.0597 252.453 86.7491 252.453C85.4385 252.453 84.376 253.516 84.376 254.826C84.376 256.137 85.4385 257.2 86.7491 257.2Z" fill="white"/>
<path d="M97.9355 241.286C97.9355 241.286 103.408 232.808 109.883 233.935C116.357 235.062 116.82 236.748 116.82 236.748C116.82 236.748 107.118 236.835 103.524 245.179L97.9355 241.286Z" fill="#24285B"/>
<path d="M110.481 269.54C110.481 269.54 116.067 274.343 127.282 275.124L131.435 280.404C124.423 281.775 117.152 280.439 111.086 276.665C102.683 271.438 110.481 269.54 110.481 269.54Z" fill="#24285B"/>
<path d="M158.692 208.451L193.6 238.078" stroke="#E6E6E6" stroke-width="7.105" stroke-miterlimit="10"/>
<path d="M229.018 227.557L263.299 249.515" stroke="#E6E6E6" stroke-width="7.105" stroke-miterlimit="10"/>
<path d="M182.606 280.472V252.049L201.876 227.557H229.008V192.64" stroke="white" stroke-width="7.105" stroke-miterlimit="10"/>
<path d="M229.018 206.495C238.309 206.495 245.84 204.049 245.84 201.032C245.84 198.015 238.309 195.569 229.018 195.569C219.727 195.569 212.195 198.015 212.195 201.032C212.195 204.049 219.727 206.495 229.018 206.495Z" fill="#24285B"/>
<path d="M138.825 241.103C138.825 241.103 139.933 233.395 147.42 234.137C154.906 234.879 152.17 236.787 149.144 236.931C148.53 237.056 147.961 237.345 147.498 237.768C147.035 238.19 146.695 238.73 146.514 239.33C146.071 240.679 144.857 242.433 141.639 243.541L138.825 241.103Z" fill="#F4A28C"/>
<path d="M253.722 154.717C253.722 150.901 252.839 147.137 251.142 143.719C249.444 140.302 246.978 137.324 243.937 135.019C240.896 132.714 237.363 131.144 233.614 130.433C229.865 129.722 226.002 129.889 222.328 130.92C218.654 131.951 215.269 133.82 212.438 136.378C209.607 138.937 207.407 142.116 206.01 145.667C204.613 149.218 204.058 153.044 204.387 156.846C204.716 160.648 205.921 164.321 207.908 167.579L229.018 202.159L250.013 167.743C252.443 163.833 253.728 159.32 253.722 154.717ZM229.018 167.83C226.628 167.83 224.292 167.121 222.306 165.794C220.319 164.466 218.77 162.579 217.856 160.371C216.941 158.164 216.702 155.734 217.168 153.391C217.634 151.047 218.785 148.894 220.475 147.204C222.164 145.515 224.317 144.364 226.661 143.898C229.005 143.431 231.434 143.671 233.642 144.585C235.849 145.5 237.736 147.048 239.064 149.035C240.392 151.022 241.1 153.358 241.1 155.748C241.1 157.334 240.788 158.905 240.181 160.371C239.573 161.837 238.683 163.169 237.561 164.291C236.44 165.413 235.108 166.303 233.642 166.91C232.176 167.517 230.605 167.83 229.018 167.83Z" fill="#FFBD30"/>
<path d="M116.819 208.451H158.693V168.225" stroke="#E6E6E6" stroke-width="7.105" stroke-miterlimit="10"/>
<path opacity="0.1" d="M298.794 258.716H237.844V289.644H298.794V258.716Z" fill="black"/>
<path d="M158.692 190.867H198.263V168.225" stroke="#E6E6E6" stroke-width="7.105" stroke-miterlimit="10"/>
<path d="M310.713 258.716H255.84C250.317 258.716 245.84 263.193 245.84 268.716V294.482C245.84 300.004 250.317 304.482 255.84 304.482H310.713C316.235 304.482 320.713 300.004 320.713 294.482V268.716C320.713 263.193 316.235 258.716 310.713 258.716Z" fill="white"/>
<path d="M262.605 285.771C262.605 285.771 261.43 292.159 266.565 291.291C271.701 290.424 269.253 287.707 268.492 284.2L262.605 285.771Z" fill="#A5A5A5"/>
<path d="M261.998 282.813L267.933 281.445C267.933 281.445 268.174 276.695 267.933 271.935C267.693 267.175 262.971 263.264 259.85 266.453C256.728 269.642 257.875 276.165 261.998 282.813Z" fill="#A5A5A5"/>
<path d="M273.232 291.667C273.232 291.667 269.85 296.417 274.35 297.66C278.849 298.903 277.896 295.733 278.628 292.65L273.232 291.667Z" fill="#A5A5A5"/>
<path d="M273.859 289.008L279.197 290.154C279.197 290.154 281.201 286.387 282.771 282.446C284.342 278.506 282.039 273.505 278.282 274.931C274.524 276.357 273.059 282.032 273.859 289.008Z" fill="#A5A5A5"/>
<path opacity="0.67" d="M311.589 275.423H293.523V280.443H311.589V275.423Z" fill="#C9C9C9"/>
<path opacity="0.31" d="M311.589 284.364H293.523V289.384H311.589V284.364Z" fill="#C9C9C9"/>
<path d="M83.3216 225.06L78.4247 218.666C78.4247 218.666 73.9763 219.686 74.093 216.458C74.2096 213.231 76.6166 214.333 75.3742 211.2C74.1318 208.067 76.4008 206.382 78.9116 207.361C81.4225 208.34 79.5769 206.268 81.6688 204.997C83.7608 203.727 84.774 204.486 85.5253 206.165C86.2767 207.844 88.7532 204.681 90.4769 206.482C92.2006 208.284 93.199 210.316 87.7858 212.991C82.3726 215.667 88.2958 218.58 83.3216 225.06Z" fill="#FFD200"/>
<defs>
<linearGradient id="paint0_linear_430_3412" x1="187.5" y1="535" x2="187.5" y2="0" gradientUnits="userSpaceOnUse">
<stop stop-color="#F4F5FA"/>
<stop offset="1" stop-color="#F4F5FA" stop-opacity="0"/>
<stop offset="1" stop-color="#F4F5FA" stop-opacity="0"/>
</linearGradient>
</defs>
</svg>
