<svg width="375" height="535" viewBox="0 0 375 535" fill="none" xmlns="http://www.w3.org/2000/svg">
<path d="M350 535H125C69.7715 535 25 490.228 25 435V0H350V535Z" fill="url(#paint0_linear_581_3535)"/>
<path d="M116.594 435.96C111.554 435.96 108.026 439.512 108.026 444.552C108.026 449.592 111.578 453.12 116.618 453.12C121.058 453.12 123.866 450.216 124.73 447.312V443.496H115.802V446.52H121.01C120.386 448.416 118.97 449.496 116.93 449.496C113.978 449.496 112.202 447.672 112.202 444.552C112.202 441.624 113.954 439.752 116.594 439.752C118.13 439.752 119.282 440.352 119.906 441.48H124.442C123.554 438.024 120.626 435.96 116.594 435.96ZM132.908 442.704C134.276 442.704 135.428 443.544 135.428 445.008H130.292C130.532 443.52 131.564 442.704 132.908 442.704ZM139.316 448.56H134.948C134.612 449.28 133.964 449.856 132.812 449.856C131.492 449.856 130.412 449.04 130.268 447.288H139.556C139.604 446.88 139.628 446.472 139.628 446.088C139.628 442.008 136.868 439.416 132.956 439.416C128.972 439.416 126.188 442.056 126.188 446.304C126.188 450.552 129.02 453.192 132.956 453.192C136.292 453.192 138.668 451.176 139.316 448.56ZM142.441 448.344C142.441 451.824 144.385 453 147.169 453H149.257V449.52H147.793C146.881 449.52 146.545 449.184 146.545 448.392V443.016H149.233V439.608H146.545V436.344H142.441V439.608H140.809V443.016H142.441V448.344ZM162.797 447.984L159.701 439.608H155.117L160.565 452.544L157.493 459.36H161.909L170.309 439.608H165.869L162.797 447.984ZM184.897 446.304C184.897 442.056 181.873 439.416 177.937 439.416C174.025 439.416 170.977 442.056 170.977 446.304C170.977 450.552 173.953 453.192 177.889 453.192C181.825 453.192 184.897 450.552 184.897 446.304ZM175.153 446.304C175.153 444.024 176.449 442.968 177.937 442.968C179.377 442.968 180.721 444.024 180.721 446.304C180.721 448.56 179.353 449.64 177.889 449.64C176.401 449.64 175.153 448.56 175.153 446.304ZM200.298 439.608H196.194V446.88C196.194 448.704 195.186 449.712 193.602 449.712C192.066 449.712 191.034 448.704 191.034 446.88V439.608H186.954V447.432C186.954 451.008 189.042 453.144 192.138 453.144C193.938 453.144 195.378 452.328 196.194 451.176V453H200.298V439.608ZM207.35 446.784C207.35 444.48 208.478 443.808 210.422 443.808H211.55V439.464C209.75 439.464 208.286 440.424 207.35 441.84V439.608H203.246V453H207.35V446.784ZM217.685 439.44H222.149V453H226.253V439.44H230.717V436.152H217.685V439.44ZM231.961 446.28C231.961 450.504 234.577 453.192 237.841 453.192C239.833 453.192 241.249 452.28 241.993 451.104V453H246.097V439.608H241.993V441.504C241.273 440.328 239.857 439.416 237.865 439.416C234.577 439.416 231.961 442.056 231.961 446.28ZM241.993 446.304C241.993 448.44 240.625 449.616 239.065 449.616C237.529 449.616 236.137 448.416 236.137 446.28C236.137 444.144 237.529 442.992 239.065 442.992C240.625 442.992 241.993 444.168 241.993 446.304ZM256.986 453H261.594L256.986 446.352L261.474 439.608H257.034L254.874 443.304L252.306 439.608H247.698L252.234 446.16L247.818 453H252.258L254.418 449.28L256.986 453ZM263.176 453H267.28V439.608H263.176V453ZM265.24 438.216C266.68 438.216 267.664 437.232 267.664 436.008C267.664 434.76 266.68 433.776 265.24 433.776C263.776 433.776 262.792 434.76 262.792 436.008C262.792 437.232 263.776 438.216 265.24 438.216Z" fill="#12121F"/>
<path d="M167.902 489.58C167.902 484.936 161.134 486.952 161.134 483.712C161.134 482.362 162.196 481.66 163.546 481.696C165.076 481.714 165.868 482.668 165.976 483.514H167.776C167.578 481.606 166.012 480.292 163.618 480.292C161.134 480.292 159.46 481.696 159.46 483.766C159.46 488.428 166.246 486.268 166.246 489.652C166.246 490.84 165.31 491.74 163.726 491.74C161.98 491.74 161.242 490.696 161.134 489.652H159.388C159.424 491.722 161.206 493.126 163.726 493.126C166.444 493.126 167.902 491.362 167.902 489.58ZM170.313 493H171.951V483.136H170.313V493ZM171.159 481.534C171.753 481.534 172.239 481.048 172.239 480.418C172.239 479.788 171.753 479.302 171.159 479.302C170.529 479.302 170.043 479.788 170.043 480.418C170.043 481.048 170.529 481.534 171.159 481.534ZM188.98 493H190.6V487.186C190.6 484.36 188.854 482.956 186.604 482.956C185.092 482.956 183.688 483.73 183.112 485.152C182.464 483.676 181.114 482.956 179.494 482.956C178.198 482.956 177.028 483.514 176.38 484.558V483.136H174.742V493H176.38V487.564C176.38 485.44 177.514 484.378 179.17 484.378C180.79 484.378 181.87 485.404 181.87 487.42V493H183.49V487.564C183.49 485.44 184.624 484.378 186.28 484.378C187.9 484.378 188.98 485.404 188.98 487.42V493ZM194.925 484.954V483.136H193.287V497.68H194.925V491.182C195.537 492.19 196.815 493.162 198.615 493.162C201.261 493.162 203.295 491.092 203.295 488.032C203.295 484.954 201.261 482.974 198.615 482.974C196.815 482.974 195.519 483.91 194.925 484.954ZM201.621 488.032C201.621 490.354 200.091 491.722 198.273 491.722C196.491 491.722 194.925 490.372 194.925 488.05C194.925 485.764 196.491 484.396 198.273 484.396C200.091 484.396 201.621 485.71 201.621 488.032ZM205.451 493H207.089V479.68H205.451V493ZM213.625 491.128L210.529 483.136H208.711L212.689 492.892L210.745 497.644H212.437L218.377 483.136H216.685L213.625 491.128Z" fill="#12121F"/>
<path d="M198.673 231.15C210.959 231.15 220.918 227.916 220.918 223.926C220.918 219.937 210.959 216.703 198.673 216.703C186.388 216.703 176.429 219.937 176.429 223.926C176.429 227.916 186.388 231.15 198.673 231.15Z" fill="#24285B"/>
<path d="M230.49 162.683C230.491 157.638 229.323 152.66 227.078 148.141C224.833 143.622 221.573 139.684 217.552 136.636C213.531 133.588 208.858 131.513 203.901 130.572C198.943 129.632 193.836 129.853 188.978 131.216C184.12 132.58 179.643 135.051 175.9 138.434C172.156 141.817 169.247 146.021 167.4 150.717C165.553 155.412 164.818 160.472 165.254 165.499C165.689 170.526 167.283 175.384 169.909 179.692L197.824 225.417L225.585 179.908C228.799 174.739 230.498 168.771 230.49 162.683ZM197.824 180.023C194.664 180.023 191.575 179.086 188.948 177.331C186.32 175.575 184.273 173.08 183.063 170.161C181.854 167.241 181.538 164.029 182.154 160.93C182.771 157.831 184.292 154.984 186.527 152.75C188.761 150.515 191.608 148.994 194.707 148.377C197.806 147.761 201.018 148.077 203.938 149.286C206.857 150.496 209.352 152.543 211.108 155.171C212.863 157.798 213.8 160.887 213.8 164.047C213.8 166.145 213.387 168.222 212.584 170.161C211.781 172.099 210.604 173.86 209.121 175.344C207.637 176.827 205.876 178.004 203.938 178.807C201.999 179.61 199.922 180.023 197.824 180.023Z" fill="#FFBD30"/>
<path opacity="0.43" d="M327.254 281.505C327.254 280.78 327.111 280.061 326.833 279.391C326.555 278.72 326.148 278.111 325.634 277.598C325.121 277.086 324.511 276.679 323.84 276.402C323.169 276.125 322.45 275.983 321.725 275.984C321.428 275.984 321.133 276.009 320.841 276.059C320.204 274.874 319.259 273.884 318.104 273.194C316.95 272.503 315.63 272.139 314.285 272.139H314.01C314.191 271.439 314.283 270.719 314.285 269.996C314.321 268.813 314.12 267.634 313.692 266.53C313.264 265.426 312.619 264.42 311.795 263.57C310.971 262.72 309.984 262.044 308.894 261.583C307.804 261.121 306.632 260.884 305.448 260.884C304.265 260.884 303.093 261.121 302.003 261.583C300.912 262.044 299.926 262.72 299.102 263.57C298.278 264.42 297.633 265.426 297.205 266.53C296.777 267.634 296.575 268.813 296.612 269.996C296.606 270.723 296.687 271.448 296.854 272.156H296.587C295.588 272.123 294.593 272.29 293.661 272.649C292.729 273.008 291.878 273.551 291.16 274.246C290.442 274.94 289.871 275.772 289.481 276.692C289.091 277.612 288.89 278.601 288.89 279.6C288.89 280.599 289.091 281.588 289.481 282.507C289.871 283.427 290.442 284.259 291.16 284.954C291.878 285.648 292.729 286.191 293.661 286.55C294.593 286.909 295.588 287.077 296.587 287.043H322.442V286.993C323.774 286.821 324.998 286.168 325.884 285.158C326.77 284.148 327.257 282.849 327.254 281.505Z" fill="#4B545A"/>
<path opacity="0.45" d="M179.906 374C252.367 374 311.108 370.288 311.108 365.71C311.108 361.131 252.367 357.419 179.906 357.419C107.445 357.419 48.7041 361.131 48.7041 365.71C48.7041 370.288 107.445 374 179.906 374Z" fill="#E6E6E6"/>
<path d="M130.573 291.339L155.452 272.64C160.683 268.71 167.049 266.585 173.592 266.585H236.979C243.695 266.574 250.308 268.235 256.223 271.418C262.137 274.601 267.166 279.206 270.857 284.817C281.099 300.455 290.265 324.308 275.478 348.879H69.7715V327.553C69.7689 323.124 71.2676 318.825 74.023 315.358C76.7783 311.89 80.6276 309.459 84.9426 308.462C99.1879 305.159 119.964 299.312 130.573 291.339Z" fill="#FFBE21"/>
<path d="M280.632 336.802H68.7789C67.3509 336.802 66.1934 337.96 66.1934 339.388V346.302C66.1934 347.73 67.3509 348.887 68.7789 348.887H280.632C282.06 348.887 283.217 347.73 283.217 346.302V339.388C283.217 337.96 282.06 336.802 280.632 336.802Z" fill="#FFBE21"/>
<path opacity="0.46" d="M280.632 336.802H68.7789C67.3509 336.802 66.1934 337.96 66.1934 339.388V346.302C66.1934 347.73 67.3509 348.887 68.7789 348.887H280.632C282.06 348.887 283.217 347.73 283.217 346.302V339.388C283.217 337.96 282.06 336.802 280.632 336.802Z" fill="white"/>
<path d="M259.881 366.118C270.356 366.118 278.847 357.627 278.847 347.152C278.847 336.678 270.356 328.186 259.881 328.186C249.406 328.186 240.915 336.678 240.915 347.152C240.915 357.627 249.406 366.118 259.881 366.118Z" fill="#24285B"/>
<path d="M259.881 358.162C265.962 358.162 270.891 353.233 270.891 347.152C270.891 341.072 265.962 336.143 259.881 336.143C253.801 336.143 248.872 341.072 248.872 347.152C248.872 353.233 253.801 358.162 259.881 358.162Z" fill="white"/>
<path d="M127.721 347.152C127.723 350.905 126.611 354.575 124.527 357.696C122.443 360.817 119.481 363.251 116.014 364.688C112.547 366.126 108.731 366.502 105.05 365.771C101.369 365.04 97.9873 363.234 95.3329 360.58C92.6784 357.927 90.8705 354.546 90.1377 350.865C89.4049 347.184 89.7801 343.369 91.216 339.901C92.6519 336.434 95.0838 333.47 98.2043 331.385C101.325 329.299 104.994 328.186 108.747 328.186C111.239 328.183 113.707 328.671 116.01 329.623C118.313 330.575 120.405 331.972 122.168 333.733C123.93 335.495 125.328 337.587 126.281 339.89C127.234 342.192 127.723 344.66 127.721 347.152Z" fill="#24285B"/>
<path d="M108.747 358.162C114.827 358.162 119.756 353.233 119.756 347.152C119.756 341.072 114.827 336.143 108.747 336.143C102.666 336.143 97.7373 341.072 97.7373 347.152C97.7373 353.233 102.666 358.162 108.747 358.162Z" fill="white"/>
<path d="M160.606 279.02L142.258 296.61C141.8 297.048 141.484 297.614 141.351 298.233C141.217 298.852 141.272 299.498 141.508 300.086C141.743 300.674 142.15 301.178 142.674 301.534C143.199 301.889 143.818 302.08 144.451 302.081H246.896C247.816 302.081 248.724 301.862 249.542 301.441C250.361 301.02 251.068 300.41 251.604 299.662C252.139 298.913 252.489 298.047 252.623 297.136C252.757 296.226 252.672 295.296 252.375 294.425L248.63 283.432C247.808 281.019 246.252 278.923 244.179 277.44C242.106 275.956 239.62 275.158 237.071 275.158H170.214C166.634 275.16 163.192 276.543 160.606 279.02Z" fill="#24285B"/>
<path d="M258.013 272.448C258.013 272.448 253.209 293.299 280.432 304.575C280.432 304.575 275.82 281.823 258.013 272.448Z" fill="#24285B"/>
<path opacity="0.03" d="M106.41 318.695C105.933 318.652 105.486 318.44 105.149 318.099C104.813 317.757 104.608 317.307 104.572 316.829C104.536 316.351 104.671 315.875 104.952 315.487C105.234 315.098 105.644 314.823 106.11 314.708C110.833 313.47 115.823 313.711 120.405 315.401C124.875 316.984 128.886 319.646 132.082 323.149C132.594 323.729 132.943 324.435 133.092 325.195C133.241 325.954 133.186 326.74 132.931 327.471C132.676 328.202 132.232 328.852 131.643 329.355C131.054 329.857 130.342 330.194 129.58 330.33C128.667 330.5 127.724 330.376 126.886 329.976C126.048 329.575 125.359 328.92 124.917 328.103C123.233 324.875 118.654 319.929 106.41 318.695Z" fill="black"/>
<path d="M194.619 272.448L192.575 307.744H210.932L205.019 272.448H194.619Z" fill="#FFBE21"/>
<path d="M173.009 308.503H164.527C163.237 308.503 162.191 309.549 162.191 310.838V311.589C162.191 312.879 163.237 313.924 164.527 313.924H173.009C174.299 313.924 175.344 312.879 175.344 311.589V310.838C175.344 309.549 174.299 308.503 173.009 308.503Z" fill="white"/>
<path d="M246.528 308.503H238.046C236.756 308.503 235.711 309.549 235.711 310.838V311.589C235.711 312.879 236.756 313.924 238.046 313.924H246.528C247.818 313.924 248.864 312.879 248.864 311.589V310.838C248.864 309.549 247.818 308.503 246.528 308.503Z" fill="white"/>
<path opacity="0.16" d="M222.759 275.158L228.272 302.081H242.392L234.185 275.158H222.759Z" fill="#BED9F4"/>
<path opacity="0.16" d="M170.298 275.158L175.802 302.081H189.923L181.716 275.158H170.298Z" fill="#BED9F4"/>
<path d="M154.31 292.94H144.76C142.402 292.94 140.49 294.852 140.49 297.21V298.57C140.49 300.928 142.402 302.84 144.76 302.84H154.31C156.669 302.84 158.58 300.928 158.58 298.57V297.21C158.58 294.852 156.669 292.94 154.31 292.94Z" fill="#FFBE21"/>
<path opacity="0.46" d="M154.31 292.94H144.76C142.402 292.94 140.49 294.852 140.49 297.21V298.57C140.49 300.928 142.402 302.84 144.76 302.84H154.31C156.669 302.84 158.58 300.928 158.58 298.57V297.21C158.58 294.852 156.669 292.94 154.31 292.94Z" fill="white"/>
<path d="M73.7334 315.743H88.3456C88.7733 315.741 89.1934 315.855 89.5619 316.072C89.9304 316.289 90.2334 316.601 90.4392 316.976C90.645 317.351 90.7459 317.774 90.7312 318.201C90.7165 318.629 90.5867 319.044 90.3557 319.404L86.4607 325.476C85.9288 326.307 85.1961 326.991 84.3303 327.465C83.4646 327.939 82.4935 328.187 81.5066 328.186H69.8301V326.644C69.8289 322.657 71.2315 318.798 73.7917 315.743H73.7334Z" fill="white"/>
<path d="M109.432 251.313C109.434 250.586 109.292 249.865 109.016 249.192C108.739 248.519 108.332 247.908 107.818 247.393C107.304 246.877 106.694 246.469 106.022 246.19C105.35 245.911 104.63 245.767 103.902 245.767C103.603 245.771 103.305 245.796 103.01 245.842C102.373 244.658 101.427 243.668 100.273 242.978C99.1184 242.288 97.7989 241.923 96.4541 241.922H96.1789C96.3601 241.222 96.4526 240.502 96.4541 239.779C96.3836 237.482 95.4216 235.303 93.7721 233.704C92.1227 232.104 89.9152 231.209 87.6175 231.209C85.3198 231.209 83.1124 232.104 81.4629 233.704C79.8134 235.303 78.8515 237.482 78.7809 239.779C78.7838 240.501 78.8734 241.221 79.0478 241.922H78.7809C76.8056 241.922 74.9112 242.707 73.5145 244.104C72.1177 245.5 71.333 247.395 71.333 249.37C71.333 251.345 72.1177 253.24 73.5145 254.637C74.9112 256.033 76.8056 256.818 78.7809 256.818H104.636V256.768C105.958 256.589 107.172 255.939 108.053 254.937C108.934 253.934 109.424 252.648 109.432 251.313Z" fill="#ABB0B5"/>
<defs>
<linearGradient id="paint0_linear_581_3535" x1="187.5" y1="535" x2="187.5" y2="0" gradientUnits="userSpaceOnUse">
<stop stop-color="#F4F5FA"/>
<stop offset="1" stop-color="#F4F5FA" stop-opacity="0"/>
<stop offset="1" stop-color="#F4F5FA" stop-opacity="0"/>
</linearGradient>
</defs>
</svg>
