<svg width="374" height="535" viewBox="0 0 374 535" fill="none" xmlns="http://www.w3.org/2000/svg">
<path d="M349 535H124C68.7715 535 24 490.228 24 435V0H349V535Z" fill="url(#paint0_linear_430_3411)"/>
<path d="M157.499 486.718C157.499 483.64 159.479 481.732 162.125 481.732C164.771 481.732 166.751 483.64 166.751 486.718C166.751 489.778 164.771 491.704 162.125 491.704C159.479 491.704 157.499 489.778 157.499 486.718ZM168.425 486.718C168.425 482.956 165.671 480.31 162.125 480.31C158.597 480.31 155.825 482.956 155.825 486.718C155.825 490.48 158.597 493.126 162.125 493.126C162.773 493.126 163.403 493.036 163.997 492.874L166.499 495.376H168.623L165.455 492.226C167.255 491.146 168.425 489.166 168.425 486.718ZM179.37 483.136H177.732V488.554C177.732 490.678 176.598 491.722 174.906 491.722C173.25 491.722 172.152 490.696 172.152 488.698V483.136H170.532V488.914C170.532 491.74 172.314 493.144 174.582 493.144C175.896 493.144 177.102 492.568 177.732 491.542V493H179.37V483.136ZM182.136 493H183.774V483.136H182.136V493ZM182.982 481.534C183.576 481.534 184.062 481.048 184.062 480.418C184.062 479.788 183.576 479.302 182.982 479.302C182.352 479.302 181.866 479.788 181.866 480.418C181.866 481.048 182.352 481.534 182.982 481.534ZM185.954 488.05C185.954 491.182 187.952 493.162 190.76 493.162C193.208 493.162 194.81 491.794 195.314 489.832H193.55C193.19 491.074 192.218 491.776 190.76 491.776C188.96 491.776 187.628 490.498 187.628 488.05C187.628 485.638 188.96 484.36 190.76 484.36C192.218 484.36 193.208 485.116 193.55 486.304H195.314C194.81 484.234 193.208 482.974 190.76 482.974C187.952 482.974 185.954 484.954 185.954 488.05ZM197.499 493H199.137V488.644L203.007 493H205.239L200.577 488.05L205.221 483.136H202.935L199.137 487.51V479.68H197.499V493ZM206.763 493H208.401V479.68H206.763V493ZM214.937 491.128L211.841 483.136H210.023L214.001 492.892L212.057 497.644H213.749L219.689 483.136H217.997L214.937 491.128Z" fill="#12121F"/>
<path d="M120.224 441.624C120.224 442.944 119.504 443.736 117.968 443.736H115.424V439.56H117.968C119.504 439.56 120.224 440.376 120.224 441.624ZM111.32 436.152V453H115.424V446.64H116.408L119.912 453H124.544L120.656 446.328C123.248 445.56 124.4 443.568 124.4 441.456C124.4 438.528 122.336 436.152 118.208 436.152H111.32ZM132.88 442.704C134.248 442.704 135.4 443.544 135.4 445.008H130.264C130.504 443.52 131.536 442.704 132.88 442.704ZM139.288 448.56H134.92C134.584 449.28 133.936 449.856 132.784 449.856C131.464 449.856 130.384 449.04 130.24 447.288H139.528C139.576 446.88 139.6 446.472 139.6 446.088C139.6 442.008 136.84 439.416 132.928 439.416C128.944 439.416 126.16 442.056 126.16 446.304C126.16 450.552 128.992 453.192 132.928 453.192C136.264 453.192 138.64 451.176 139.288 448.56ZM140.949 446.328C140.949 450.408 143.733 453.168 147.021 453.168C148.797 453.168 150.117 452.376 150.981 451.32V459.384H155.085V439.608H150.981V441.144C150.165 440.136 148.821 439.464 147.069 439.464C143.733 439.464 140.949 442.248 140.949 446.328ZM150.981 446.304C150.981 448.56 149.445 449.616 148.053 449.616C146.685 449.616 145.125 448.584 145.125 446.328C145.125 444.072 146.685 443.016 148.053 443.016C149.445 443.016 150.981 444.048 150.981 446.304ZM171.278 439.608H167.174V446.88C167.174 448.704 166.166 449.712 164.582 449.712C163.046 449.712 162.014 448.704 162.014 446.88V439.608H157.934V447.432C157.934 451.008 160.022 453.144 163.118 453.144C164.918 453.144 166.358 452.328 167.174 451.176V453H171.278V439.608ZM180.13 442.704C181.498 442.704 182.65 443.544 182.65 445.008H177.514C177.754 443.52 178.786 442.704 180.13 442.704ZM186.538 448.56H182.17C181.834 449.28 181.186 449.856 180.034 449.856C178.714 449.856 177.634 449.04 177.49 447.288H186.778C186.826 446.88 186.85 446.472 186.85 446.088C186.85 442.008 184.09 439.416 180.178 439.416C176.194 439.416 173.41 442.056 173.41 446.304C173.41 450.552 176.242 453.192 180.178 453.192C183.514 453.192 185.89 451.176 186.538 448.56ZM199.887 449.112C199.815 444.12 192.567 445.632 192.567 443.496C192.567 442.848 193.095 442.464 194.055 442.464C195.207 442.464 195.903 443.064 196.023 443.976H199.815C199.551 441.336 197.631 439.416 194.175 439.416C190.671 439.416 188.727 441.288 188.727 443.568C188.727 448.488 196.023 446.928 196.023 449.088C196.023 449.688 195.471 450.168 194.415 450.168C193.287 450.168 192.447 449.544 192.351 448.608H188.295C188.487 451.2 190.887 453.192 194.463 453.192C197.823 453.192 199.887 451.44 199.887 449.112ZM203.046 448.344C203.046 451.824 204.99 453 207.774 453H209.862V449.52H208.398C207.486 449.52 207.15 449.184 207.15 448.392V443.016H209.838V439.608H207.15V436.344H203.046V439.608H201.414V443.016H203.046V448.344ZM221.338 446.784C221.338 444.48 222.466 443.808 224.41 443.808H225.538V439.464C223.738 439.464 222.274 440.424 221.338 441.84V439.608H217.234V453H221.338V446.784ZM227.5 453H231.604V439.608H227.5V453ZM229.564 438.216C231.004 438.216 231.988 437.232 231.988 436.008C231.988 434.76 231.004 433.776 229.564 433.776C228.1 433.776 227.116 434.76 227.116 436.008C227.116 437.232 228.1 438.216 229.564 438.216ZM233.762 446.28C233.762 450.504 236.378 453.192 239.666 453.192C241.634 453.192 243.05 452.304 243.794 451.08V453H247.898V435.24H243.794V441.456C242.978 440.232 241.442 439.416 239.666 439.416C236.378 439.416 233.762 442.056 233.762 446.28ZM243.794 446.304C243.794 448.44 242.426 449.616 240.866 449.616C239.33 449.616 237.938 448.416 237.938 446.28C237.938 444.144 239.33 442.992 240.866 442.992C242.426 442.992 243.794 444.168 243.794 446.304ZM256.771 442.704C258.139 442.704 259.291 443.544 259.291 445.008H254.155C254.395 443.52 255.427 442.704 256.771 442.704ZM263.179 448.56H258.811C258.475 449.28 257.827 449.856 256.675 449.856C255.355 449.856 254.275 449.04 254.131 447.288H263.419C263.467 446.88 263.491 446.472 263.491 446.088C263.491 442.008 260.731 439.416 256.819 439.416C252.835 439.416 250.051 442.056 250.051 446.304C250.051 450.552 252.883 453.192 256.819 453.192C260.155 453.192 262.531 451.176 263.179 448.56Z" fill="#12121F"/>
<path d="M249.748 190.024C261.206 190.024 270.496 181.289 270.496 170.512C270.496 159.736 261.206 151 249.748 151C238.289 151 229 159.736 229 170.512C229 181.289 238.289 190.024 249.748 190.024Z" fill="#24285B"/>
<g clip-path="url(#clip0_430_3411)">
<path d="M256.45 169.316V177.211C256.45 177.42 256.371 177.621 256.231 177.769C256.09 177.917 255.899 178 255.7 178H254.95C254.751 178 254.561 177.917 254.42 177.769C254.279 177.621 254.2 177.42 254.2 177.211V176.421H243.7V177.211C243.7 177.42 243.621 177.621 243.481 177.769C243.34 177.917 243.149 178 242.95 178H242.2C242.001 178 241.811 177.917 241.67 177.769C241.529 177.621 241.45 177.42 241.45 177.211V169.316L243.285 165.452C243.41 165.19 243.602 164.969 243.839 164.815C244.076 164.66 244.349 164.579 244.628 164.579H246.7V163H251.2V164.579H253.273C253.552 164.579 253.825 164.661 254.062 164.815C254.299 164.969 254.49 165.19 254.615 165.452L256.45 169.316ZM254.95 170.895H242.95V174.842H254.95V170.895ZM243.127 169.316H254.773L253.273 166.158H244.627L243.127 169.316ZM244.825 174.053C244.527 174.053 244.241 173.928 244.03 173.706C243.819 173.484 243.7 173.182 243.7 172.868C243.7 172.554 243.819 172.253 244.03 172.031C244.241 171.809 244.527 171.684 244.825 171.684C245.124 171.684 245.41 171.809 245.621 172.031C245.832 172.253 245.95 172.554 245.95 172.868C245.95 173.182 245.832 173.484 245.621 173.706C245.41 173.928 245.124 174.053 244.825 174.053ZM253.075 174.053C252.777 174.053 252.491 173.928 252.28 173.706C252.069 173.484 251.95 173.182 251.95 172.868C251.95 172.554 252.069 172.253 252.28 172.031C252.491 171.809 252.777 171.684 253.075 171.684C253.374 171.684 253.66 171.809 253.871 172.031C254.082 172.253 254.2 172.554 254.2 172.868C254.2 173.182 254.082 173.484 253.871 173.706C253.66 173.928 253.374 174.053 253.075 174.053Z" fill="white"/>
</g>
<path d="M238.024 174.41L226 191.335L243.016 180.272L238.024 174.41Z" fill="#24285B"/>
<path d="M254.883 306.82V283.085C254.883 281.933 255.282 280.827 255.992 280.011C256.703 279.195 257.667 278.736 258.673 278.733H273.777C274.783 278.736 275.747 279.195 276.458 280.011C277.168 280.827 277.567 281.933 277.567 283.085V306.82" stroke="#FFD200" stroke-width="2.03" stroke-miterlimit="10"/>
<path opacity="0.08" d="M254.883 306.82V283.085C254.883 281.933 255.282 280.827 255.992 280.011C256.703 279.195 257.667 278.736 258.673 278.733H273.777C274.783 278.736 275.747 279.195 276.458 280.011C277.168 280.827 277.567 281.933 277.567 283.085V306.82" stroke="black" stroke-width="2.03" stroke-miterlimit="10"/>
<path d="M153.24 250.422C153.24 250.422 138.259 257.31 143.103 277.264C147.947 297.218 148.396 299.38 159.203 298.154C170.011 296.928 163.01 277.264 163.01 277.264L153.24 250.422Z" fill="#FFD200"/>
<path d="M147.612 188.82C147.612 188.82 106.066 199.854 95.1367 227.744L131.937 230.927L141.363 224.375L147.612 188.82Z" fill="#FFBE21"/>
<path opacity="0.46" d="M147.612 188.82C147.612 188.82 106.066 199.854 95.1367 227.744L131.937 230.927L141.363 224.375L147.612 188.82Z" fill="white"/>
<path opacity="0.45" d="M186.863 380C256.375 380 312.726 375.043 312.726 368.928C312.726 362.813 256.375 357.856 186.863 357.856C117.351 357.856 61 362.813 61 368.928C61 375.043 117.351 380 186.863 380Z" fill="#E6E6E6"/>
<path d="M133.252 344.566C133.252 344.566 129.617 347.58 126.276 345.418C122.935 343.256 120.01 346.138 122.298 349.283C124.585 352.428 134.387 353.963 134.387 353.963L138.071 347.149L133.252 344.566Z" fill="#FFBE21"/>
<path d="M198.839 357.884C198.839 357.884 200.423 362.704 204.246 363.004C208.069 363.303 209.147 367.571 205.708 368.75C202.269 369.929 193.357 365.006 193.357 365.006L193.57 356.986L198.839 357.884Z" fill="#FFBE21"/>
<path opacity="0.58" d="M87.8341 357.435C87.8341 357.435 79.1835 354.721 77.3047 345.502C77.3047 345.502 90.7095 342.395 91.0852 358.249L87.8341 357.435Z" fill="#FFBE21"/>
<path opacity="0.73" d="M88.8961 356.424C88.8961 356.424 82.8513 345.474 88.1691 335.235C88.1691 335.235 98.3636 342.657 93.83 356.443L88.8961 356.424Z" fill="#FFBE21"/>
<path d="M90.4561 356.424C90.4561 356.424 93.6418 344.865 103.297 342.675C103.297 342.675 105.102 350.163 97.0482 356.461L90.4561 356.424Z" fill="#FFBE21"/>
<path d="M84.1826 356.19L85.9307 369.939L96.9747 369.995L98.6003 356.265L84.1826 356.19Z" fill="#24285B"/>
<path d="M150.741 164.345C150.741 164.345 152.162 170.241 154.229 173.704C154.43 174.037 154.686 174.321 154.983 174.54C155.28 174.759 155.612 174.908 155.96 174.98C156.308 175.051 156.664 175.043 157.009 174.956C157.354 174.869 157.681 174.704 157.97 174.472C159.465 173.255 161.18 171.112 160.755 167.845L160.633 162.23C160.506 161.1 160.077 160.044 159.404 159.205C158.731 158.367 157.847 157.789 156.875 157.55C153.306 156.399 149.76 160.817 150.741 164.345Z" fill="#F4A28C"/>
<path d="M161.549 165.15L168.467 183.56L159.343 187.2L157.971 172.347L161.549 165.15Z" fill="#F4A28C"/>
<path d="M162.716 166.358C162.754 166.478 162.756 166.609 162.722 166.731C162.688 166.853 162.62 166.959 162.528 167.031C161.903 167.555 161.145 167.829 160.37 167.812C159.596 167.795 158.847 167.488 158.24 166.938C157.542 166.349 157.009 165.539 156.708 164.608C156.406 163.677 156.348 162.665 156.541 161.697C155.134 162.68 153.631 163.471 152.064 164.055C151.538 164.26 150.986 164.362 150.43 164.355L147.751 160.611C147.751 160.611 144.296 157.186 146.207 155.304C148.119 153.423 150.096 155.875 151.198 153.021C152.301 150.166 152.456 149.212 154.686 149.539C156.916 149.867 155.364 152.459 158.387 151.13C161.409 149.801 161.948 151.205 162.471 152.768C162.588 153.334 162.554 153.928 162.373 154.471C161.363 158.372 161.483 162.542 162.716 166.358Z" fill="#FFD200"/>
<path d="M157.651 166.994C157.651 166.994 156.973 164.776 158.468 164.327C159.963 163.877 160.968 167.134 159.097 168.22L157.651 166.994Z" fill="#F4A28C"/>
<path d="M151.803 168.005L151.125 170.813C151.073 170.972 151.06 171.146 151.087 171.313C151.115 171.481 151.182 171.637 151.281 171.764C151.38 171.891 151.508 171.985 151.65 172.035C151.793 172.085 151.944 172.09 152.089 172.048L154.139 171.646L151.803 168.005Z" fill="#F4A28C"/>
<path d="M271.871 276.618H260.507C259.955 276.618 259.507 277.066 259.507 277.618V280.579C259.507 281.131 259.955 281.579 260.507 281.579H271.871C272.423 281.579 272.871 281.131 272.871 280.579V277.618C272.871 277.066 272.423 276.618 271.871 276.618Z" fill="#24285B"/>
<path opacity="0.31" d="M158.182 174.322C158.182 174.322 159.358 173.864 161.22 171.206C161.22 171.206 162.078 175.09 158.557 178.693L158.182 174.322Z" fill="#CE8172"/>
<path d="M155.576 185.731L160.829 184.645C163.285 184.137 165.717 183.488 168.115 182.699C177.101 179.76 203.543 172.844 211.066 190.373C220.182 211.609 204.964 280.502 204.964 280.502H163.304C163.304 280.502 154.8 251.807 142.645 234.062C130.49 216.317 121.987 196.578 155.576 185.731Z" fill="#FFBE21"/>
<path opacity="0.08" d="M147.612 188.82C147.612 188.82 145.521 204.094 163.835 192.563L159.138 185.076C155.174 185.76 151.301 187.018 147.612 188.82Z" fill="black"/>
<path d="M100.683 244.769C92.3834 241.811 91.1418 228.858 98.6651 223.832C101.395 222.07 104.441 221.046 107.569 220.837C121.521 219.658 145.292 218.17 145.292 218.17C145.292 218.17 159.603 223.505 157.357 231.497C155.111 239.49 145.039 226.762 145.039 226.762C145.039 226.762 118.441 251.096 100.683 244.769Z" fill="#F4A28C"/>
<path d="M145.467 217.152L140.58 217.932L141.966 229.334L146.853 228.554L145.467 217.152Z" fill="#24285B"/>
<path d="M145.474 215.794L140.589 216.586L141.026 220.126L145.911 219.334L145.474 215.794Z" fill="#FFD200"/>
<path d="M159.138 185.001C159.138 185.001 152.799 191.684 160.126 193.116C167.453 194.547 168.115 182.699 168.115 182.699L159.138 185.001Z" fill="#F4A28C"/>
<path d="M163.345 280.502L131.937 344.566L140.048 351.033C140.048 351.033 157.398 317.855 178.057 301.186C178.725 300.652 179.493 300.305 180.299 300.173C181.106 300.041 181.928 300.127 182.7 300.424C183.472 300.722 184.172 301.223 184.745 301.886C185.317 302.55 185.746 303.358 185.997 304.246C191.584 324.041 192.058 358.53 192.058 358.53H201.632L204.964 280.53L163.345 280.502Z" fill="#24285B"/>
<path opacity="0.08" d="M163.345 280.502C163.345 280.502 178.988 266.463 184.518 246.425C184.812 245.408 185.334 244.497 186.03 243.782C186.727 243.067 187.575 242.572 188.489 242.348C189.404 242.124 190.354 242.178 191.245 242.504C192.136 242.83 192.937 243.417 193.569 244.207L208.436 262.626L211.434 243.374L200.561 203.953L179.984 188.82L175.9 207.079L163.345 280.502Z" fill="black"/>
<path d="M156.59 262.776C156.59 262.776 166.237 251.807 168.116 215.175C169.676 184.701 173.491 178.749 181.455 176.615C193.757 173.302 196.69 177.495 200.562 183.756C200.562 183.756 180.892 185.151 181.578 199.255C182.264 213.359 179.528 263.599 163.345 280.502C163.345 280.502 155.838 279.781 156.59 262.776Z" fill="#FFD200"/>
<path opacity="0.46" d="M156.59 262.776C156.59 262.776 166.237 251.807 168.116 215.175C169.676 184.701 173.491 178.749 181.455 176.615C193.757 173.302 196.69 177.495 200.562 183.756C200.562 183.756 180.892 185.151 181.578 199.255C182.264 213.359 179.528 263.599 163.345 280.502C163.345 280.502 155.838 279.781 156.59 262.776Z" fill="white"/>
<path d="M183.554 201.773C179.47 190.542 190.849 176.372 200.709 180.752C209.139 184.496 218.149 192.769 223.042 209.429C234.666 249.027 260.854 268.167 260.854 268.167C260.854 268.167 274.218 270.694 274.218 276.263C274.218 281.831 258.42 276.263 258.42 276.263C258.42 276.263 217.414 256.767 196.142 225.442C189.787 216.036 185.882 208.165 183.554 201.773Z" fill="#F4A28C"/>
<path d="M208.044 239.958C208.044 239.958 224.332 233.641 228.465 224.403C228.465 224.403 222.568 187.987 201.615 180.153C194.721 177.579 187.018 180.471 183.407 187.64C179.029 196.382 179.984 212.498 208.044 239.958Z" fill="#FFBE21"/>
<path opacity="0.46" d="M208.044 239.958C208.044 239.958 224.332 233.641 228.465 224.403C228.465 224.403 222.568 187.987 201.615 180.153C194.721 177.579 187.018 180.471 183.407 187.64C179.029 196.382 179.984 212.498 208.044 239.958Z" fill="white"/>
<path d="M251 365.5C251 366.881 252.119 368 253.5 368C254.881 368 256 366.881 256 365.5C256 364.119 254.881 363 253.5 363C252.119 363 251 364.119 251 365.5Z" fill="#24285B"/>
<path d="M276 365.5C276 366.881 277.119 368 278.5 368C279.881 368 281 366.881 281 365.5C281 364.119 279.881 363 278.5 363C277.119 363 276 364.119 276 365.5Z" fill="#24285B"/>
<rect x="245" y="299" width="43" height="64" rx="7" fill="#FFBD30"/>
<path opacity="0.08" d="M278.245 339.663H255.765C253.556 339.663 251.765 341.454 251.765 343.663V347.668C251.765 349.877 253.556 351.668 255.765 351.668H278.245C280.454 351.668 282.245 349.877 282.245 347.668V343.663C282.245 341.454 280.454 339.663 278.245 339.663Z" fill="black"/>
<path opacity="0.08" d="M278.245 311.288H255.765C253.556 311.288 251.765 313.079 251.765 315.288V333.48C251.765 335.69 253.556 337.48 255.765 337.48H278.245C280.454 337.48 282.245 335.69 282.245 333.48V315.288C282.245 313.079 280.454 311.288 278.245 311.288Z" fill="black"/>
<defs>
<linearGradient id="paint0_linear_430_3411" x1="186.5" y1="535" x2="186.5" y2="0" gradientUnits="userSpaceOnUse">
<stop stop-color="#F4F5FA"/>
<stop offset="1" stop-color="#F4F5FA" stop-opacity="0"/>
<stop offset="1" stop-color="#F4F5FA" stop-opacity="0"/>
</linearGradient>
<clipPath id="clip0_430_3411">
<rect width="24" height="24" fill="white" transform="translate(237 159)"/>
</clipPath>
</defs>
</svg>
