<svg width="374" height="535" viewBox="0 0 374 535" fill="none" xmlns="http://www.w3.org/2000/svg">
<path d="M349 535H124C68.7715 535 24 490.228 24 435V0H349V535Z" fill="url(#paint0_linear_581_3536)"/>
<path d="M105.572 447.984C105.572 442.344 97.2438 443.664 97.2438 440.736C97.2438 439.68 97.9878 439.176 98.9718 439.2C100.076 439.224 100.844 439.872 100.916 440.952H105.356C105.188 437.736 102.716 435.912 99.0438 435.912C95.5158 435.912 92.8998 437.688 92.8998 440.88C92.8518 446.856 101.276 445.176 101.276 448.296C101.276 449.28 100.508 449.88 99.3078 449.88C98.1558 449.88 97.3398 449.256 97.2198 447.96H92.8518C92.9718 451.368 95.8038 453.168 99.4278 453.168C103.364 453.168 105.572 450.816 105.572 447.984ZM107.281 446.28C107.281 450.504 109.897 453.192 113.161 453.192C115.153 453.192 116.569 452.28 117.313 451.104V453H121.417V439.608H117.313V441.504C116.593 440.328 115.177 439.416 113.185 439.416C109.897 439.416 107.281 442.056 107.281 446.28ZM117.313 446.304C117.313 448.44 115.945 449.616 114.385 449.616C112.849 449.616 111.457 448.416 111.457 446.28C111.457 444.144 112.849 442.992 114.385 442.992C115.945 442.992 117.313 444.168 117.313 446.304ZM123.114 439.608L127.866 453H132.93L137.682 439.608H133.314L130.41 449.16L127.506 439.608H123.114ZM145.314 442.704C146.682 442.704 147.834 443.544 147.834 445.008H142.698C142.938 443.52 143.97 442.704 145.314 442.704ZM151.722 448.56H147.354C147.018 449.28 146.37 449.856 145.218 449.856C143.898 449.856 142.818 449.04 142.674 447.288H151.962C152.01 446.88 152.034 446.472 152.034 446.088C152.034 442.008 149.274 439.416 145.362 439.416C141.378 439.416 138.594 442.056 138.594 446.304C138.594 450.552 141.426 453.192 145.362 453.192C148.698 453.192 151.074 451.176 151.722 448.56ZM163.797 447.432V453H167.901V447.432L173.733 436.152H169.125L165.885 443.208L162.621 436.152H157.965L163.797 447.432ZM188.49 446.304C188.49 442.056 185.466 439.416 181.53 439.416C177.618 439.416 174.57 442.056 174.57 446.304C174.57 450.552 177.546 453.192 181.482 453.192C185.418 453.192 188.49 450.552 188.49 446.304ZM178.746 446.304C178.746 444.024 180.042 442.968 181.53 442.968C182.97 442.968 184.314 444.024 184.314 446.304C184.314 448.56 182.946 449.64 181.482 449.64C179.994 449.64 178.746 448.56 178.746 446.304ZM203.892 439.608H199.788V446.88C199.788 448.704 198.78 449.712 197.196 449.712C195.66 449.712 194.628 448.704 194.628 446.88V439.608H190.548V447.432C190.548 451.008 192.636 453.144 195.732 453.144C197.532 453.144 198.972 452.328 199.788 451.176V453H203.892V439.608ZM210.944 446.784C210.944 444.48 212.072 443.808 214.016 443.808H215.144V439.464C213.344 439.464 211.88 440.424 210.944 441.84V439.608H206.84V453H210.944V446.784ZM221.279 439.44H225.743V453H229.847V439.44H234.311V436.152H221.279V439.44ZM236.371 453H240.475V439.608H236.371V453ZM238.435 438.216C239.875 438.216 240.859 437.232 240.859 436.008C240.859 434.76 239.875 433.776 238.435 433.776C236.971 433.776 235.987 434.76 235.987 436.008C235.987 437.232 236.971 438.216 238.435 438.216ZM261.905 453H265.985V445.176C265.985 441.576 263.849 439.464 260.537 439.464C258.593 439.464 256.913 440.544 256.025 441.96C255.113 440.352 253.481 439.464 251.465 439.464C249.713 439.464 248.345 440.208 247.553 441.288V439.608H243.449V453H247.553V445.728C247.553 443.976 248.561 443.016 250.121 443.016C251.681 443.016 252.689 443.976 252.689 445.728V453H256.769V445.728C256.769 443.976 257.777 443.016 259.337 443.016C260.897 443.016 261.905 443.976 261.905 445.728V453ZM274.759 442.704C276.127 442.704 277.279 443.544 277.279 445.008H272.143C272.383 443.52 273.415 442.704 274.759 442.704ZM281.167 448.56H276.799C276.463 449.28 275.815 449.856 274.663 449.856C273.343 449.856 272.263 449.04 272.119 447.288H281.407C281.455 446.88 281.479 446.472 281.479 446.088C281.479 442.008 278.719 439.416 274.807 439.416C270.823 439.416 268.039 442.056 268.039 446.304C268.039 450.552 270.871 453.192 274.807 453.192C278.143 453.192 280.519 451.176 281.167 448.56Z" fill="#12121F"/>
<path d="M158.219 493.018L160.037 493L163.061 482.902L165.977 493H167.813L171.449 480.454H169.685L166.931 491.056L164.051 480.454H162.215L159.191 491.092L156.455 480.454H154.709L158.219 493.018ZM173.241 493H174.879V483.136H173.241V493ZM174.087 481.534C174.681 481.534 175.167 481.048 175.167 480.418C175.167 479.788 174.681 479.302 174.087 479.302C173.457 479.302 172.971 479.788 172.971 480.418C172.971 481.048 173.457 481.534 174.087 481.534ZM178.031 490.3C178.031 492.28 179.021 493 180.767 493H182.243V491.614H181.037C180.029 491.614 179.669 491.272 179.669 490.3V484.486H182.243V483.136H179.669V480.652H178.031V483.136H176.753V484.486H178.031V490.3ZM184.228 493H185.866V487.546C185.866 485.422 187.018 484.378 188.692 484.378C190.348 484.378 191.446 485.404 191.446 487.42V493H193.066V487.186C193.066 484.36 191.32 482.956 189.124 482.956C187.738 482.956 186.514 483.514 185.866 484.558V479.68H184.228V493ZM200.504 488.374C200.504 491.632 202.628 493.126 205.22 493.126C207.812 493.126 209.954 491.632 209.954 488.374V480.454H208.316V488.392C208.316 490.696 207.092 491.686 205.238 491.686C203.384 491.686 202.142 490.696 202.142 488.392V480.454H200.504V488.374ZM219.779 490.318C219.707 486.79 213.983 488.068 213.983 485.728C213.983 484.936 214.703 484.36 215.909 484.36C217.223 484.36 217.979 485.08 218.051 486.07H219.689C219.581 484.144 218.141 482.974 215.963 482.974C213.767 482.974 212.345 484.216 212.345 485.728C212.345 489.4 218.177 488.122 218.177 490.318C218.177 491.128 217.457 491.776 216.161 491.776C214.775 491.776 213.929 491.056 213.839 490.102H212.147C212.255 491.902 213.875 493.162 216.179 493.162C218.357 493.162 219.779 491.938 219.779 490.318Z" fill="#12121F"/>
<path d="M213.933 198.91C213.933 198.91 240.087 212.003 251.473 241.259L219.414 243.067L213.933 198.91Z" fill="#FFBE21"/>
<path opacity="0.44" d="M219.414 243.067L213.933 198.91C213.933 198.91 240.087 212.003 251.473 241.259" fill="white"/>
<path opacity="0.3" d="M187.189 353.249C241.213 353.249 285.007 348.367 285.007 342.345C285.007 336.322 241.213 331.44 187.189 331.44C133.166 331.44 89.3711 336.322 89.3711 342.345C89.3711 348.367 133.166 353.249 187.189 353.249Z" fill="#E6E6E6"/>
<path d="M136.042 273.741H122.849V339.525H136.042V273.741Z" fill="#C1C1C1"/>
<path d="M250.346 273.741H237.152V339.525H250.346V273.741Z" fill="#C1C1C1"/>
<path d="M261.042 247.537H110.268C106.33 247.537 103.137 250.73 103.137 254.668V283.211C103.137 287.15 106.33 290.343 110.268 290.343H261.042C264.981 290.343 268.174 287.15 268.174 283.211V254.668C268.174 250.73 264.981 247.537 261.042 247.537Z" fill="#E6E6E6"/>
<path opacity="0.09" d="M145.279 290.343H238.155C238.155 290.343 231.189 281.81 232.732 271.427C234.274 261.045 246.058 251.915 246.058 251.915L224.647 246.708L189.478 250.804L156.997 248.681L145.279 290.343Z" fill="black"/>
<path d="M183.914 192.524C183.914 192.524 145.055 197.093 148.538 219.981C152.021 242.868 172.238 283.518 172.238 283.518L214.762 281.353C214.762 281.353 225.352 232.643 226.372 219.989C227.391 207.335 210.898 188.9 183.914 192.524Z" fill="#FFBE21"/>
<path d="M264.293 300.974H107.018C104.874 300.974 103.137 302.711 103.137 304.855V310.618C103.137 312.761 104.874 314.499 107.018 314.499H264.293C266.436 314.499 268.174 312.761 268.174 310.618V304.855C268.174 302.711 266.436 300.974 264.293 300.974Z" fill="#E6E6E6"/>
<path d="M193.501 173.418L183.923 192.524L193.799 203.329L197.423 181.329L193.501 173.418Z" fill="#F4A28C"/>
<path opacity="0.31" d="M197 184.796C195.713 184.002 194.687 182.849 194.048 181.479C194.048 181.479 193.028 185.26 195.955 190.236L197 184.796Z" fill="#CE8172"/>
<path d="M203.086 174.638C203.086 174.638 202.539 181.139 200.731 185.21C200.369 186.001 199.711 186.619 198.898 186.929C198.085 187.239 197.183 187.218 196.386 186.869C194.346 185.932 191.866 184.066 191.734 180.542L190.772 174.563C190.708 173.352 191.02 172.151 191.666 171.125C192.312 170.099 193.26 169.299 194.379 168.833C198.459 166.876 203.617 170.69 203.086 174.638Z" fill="#F4A28C"/>
<path d="M202.531 178.709L203.899 181.496C203.976 181.654 204.011 181.829 204.002 182.004C203.993 182.18 203.941 182.35 203.849 182.5C203.758 182.65 203.63 182.775 203.478 182.863C203.326 182.951 203.155 183 202.979 183.005H200.441L202.531 178.709Z" fill="#F4A28C"/>
<path d="M189.089 181.131L189.337 172.266C189.337 172.266 184.826 170.052 187.165 167.373C189.503 164.695 190.797 167.307 191.908 163.766C193.019 160.225 196.129 160.358 197.597 162.937C199.064 165.516 198.923 162.464 201.594 162.829C204.264 163.194 204.604 164.546 204.081 166.503C203.559 168.46 207.871 167.473 208.095 170.209C208.319 172.946 207.763 175.376 201.278 173.908C194.794 172.44 197.837 179.041 189.089 181.131Z" fill="#FFD200"/>
<path d="M195.309 178.966C195.309 178.966 195.682 176.479 193.791 176.354C191.9 176.23 191.303 179.812 193.791 180.575L195.309 178.966Z" fill="#F4A28C"/>
<path opacity="0.09" d="M166.666 209.814C166.666 209.814 178.516 219.765 177.123 243.067C175.73 266.369 197.025 282.257 197.025 282.257L172.264 283.518C172.264 283.518 163.747 265.954 159.991 256.153C156.234 246.351 166.666 209.814 166.666 209.814Z" fill="black"/>
<path d="M246.124 253.283C253.927 251.111 254.533 240.015 246.953 237.155L246.754 237.088C240.187 234.733 212.125 239.949 212.125 239.949C212.125 239.949 199.96 237.461 200.516 242.52C201.071 247.578 206.42 249.859 213.427 245.638C213.385 245.638 230.518 257.62 246.124 253.283Z" fill="#F4A28C"/>
<path d="M217.254 239.475L213.589 239.145L212.925 246.526L216.59 246.855L217.254 239.475Z" fill="#24285B"/>
<path d="M144.359 231.532L131.812 296.537C131.812 296.537 123.445 296.346 123.909 300.973H140.643C140.643 300.973 166.898 247.072 166.665 230.081C166.433 213.09 148.704 208.902 144.359 231.532Z" fill="#F4A28C"/>
<path d="M214.09 242.843C215.437 242.843 216.528 241.752 216.528 240.405C216.528 239.059 215.437 237.967 214.09 237.967C212.744 237.967 211.652 239.059 211.652 240.405C211.652 241.752 212.744 242.843 214.09 242.843Z" fill="white"/>
<path d="M148.265 211.663C144.053 218.065 139.309 228.373 138.082 243.324L164.344 250.787C164.344 250.787 172.421 230.056 169.867 216.017C167.96 205.535 154.103 202.757 148.265 211.663Z" fill="#FFBE21"/>
<path opacity="0.44" d="M148.265 211.663C144.053 218.065 139.309 228.373 138.082 243.324L164.344 250.787C164.344 250.787 172.421 230.056 169.867 216.017C167.96 205.535 154.103 202.757 148.265 211.663Z" fill="white"/>
<path d="M172.238 283.518L160.629 296.056C158.676 298.161 157.302 300.738 156.644 303.533C155.986 306.328 156.064 309.247 156.872 312.003L163.962 336.2L170.364 336.424L168.805 312.948C168.663 310.757 169.295 308.586 170.591 306.814C171.887 305.042 173.764 303.782 175.895 303.254L180.216 302.184C183.742 301.309 187.362 300.869 190.996 300.874C200.59 300.874 219.082 301.703 224.058 307.74C230.874 315.975 242.301 338.281 242.301 338.281L248.504 334.566C248.504 334.566 240.444 291.031 214.729 281.354L172.238 283.518Z" fill="#24285B"/>
<path d="M243.744 337.436L245.784 341.731L253.596 339.5C253.947 339.393 254.255 339.179 254.477 338.887C254.7 338.596 254.825 338.241 254.835 337.875C254.845 337.508 254.74 337.147 254.534 336.844C254.328 336.54 254.031 336.309 253.687 336.183C251.546 335.347 249.215 335.12 246.953 335.528L243.744 337.436Z" fill="#FFBE21"/>
<path d="M165.041 336.266C163.781 336.448 162.55 336.788 161.375 337.278C160.971 337.453 160.639 337.762 160.436 338.154C160.233 338.545 160.171 338.994 160.261 339.426C160.35 339.857 160.586 340.245 160.928 340.523C161.27 340.801 161.698 340.952 162.138 340.952H170.033L169.436 336.266H165.041Z" fill="#FFBE21"/>
<path d="M258.298 202.393C269.756 202.393 279.045 193.657 279.045 182.88C279.045 172.104 269.756 163.368 258.298 163.368C246.839 163.368 237.55 172.104 237.55 182.88C237.55 193.657 246.839 202.393 258.298 202.393Z" fill="#24285B"/>
<path d="M246.879 186.778L234.854 203.703L251.871 192.641L246.879 186.778Z" fill="#24285B"/>
<path d="M258.696 192.574C264.05 192.574 268.39 188.234 268.39 182.88C268.39 177.526 264.05 173.186 258.696 173.186C253.342 173.186 249.002 177.526 249.002 182.88C249.002 188.234 253.342 192.574 258.696 192.574Z" fill="white"/>
<path d="M258.695 177.797V183.56L262.941 183.22" stroke="#24285B" stroke-width="1.015" stroke-linecap="round" stroke-linejoin="round"/>
<defs>
<linearGradient id="paint0_linear_581_3536" x1="186.5" y1="535" x2="186.5" y2="0" gradientUnits="userSpaceOnUse">
<stop stop-color="#F4F5FA"/>
<stop offset="1" stop-color="#F4F5FA" stop-opacity="0"/>
<stop offset="1" stop-color="#F4F5FA" stop-opacity="0"/>
</linearGradient>
</defs>
</svg>
